<svg xmlns="http://www.w3.org/2000/svg" width="28.16" height="49.107" viewBox="0 0 28.16 49.107">
    <g>
        <path fill="#4e4d79" d="M710.564 751.313l-13.3 3.907a6.592 6.592 0 0 0-4.534 6.424v11.472l4.209-.111a4.021 4.021 0 0 1 3.084 1.336 4.741 4.741 0 0 1 1.237 3.341l-.15 7.192a1.767 1.767 0 0 1-1.65 1.816h-.031a1.589 1.589 0 0 1-1.162-.522 1.972 1.972 0 0 1-.521-1.34V778.1a1.323 1.323 0 0 0-1.246-1.366l-3.769-.048v12.78a6.592 6.592 0 0 0 4.534 6.424l13.3 3.907c5.2 1.527 10.321-2.719 10.321-8.561v-31.362c-.001-5.842-5.121-10.088-10.322-8.561zm-11.141 17.352a3.286 3.286 0 1 1 3.021-3.275 3.16 3.16 0 0 1-3.021 3.275zm14.037 20.195a.848.848 0 0 1 .16.873.739.739 0 0 1-.683.494h-2.2a1.487 1.487 0 0 1-1.1-.494l-6.3-6.825a4.509 4.509 0 0 1 0-6.19l6.3-6.825a1.486 1.486 0 0 1 1.1-.494h2.207a.736.736 0 0 1 .68.493.845.845 0 0 1-.16.87l-8.349 9.051z" transform="translate(-692.725 -751)"/>
    </g>
</svg>
